<svg xmlns="http://www.w3.org/2000/svg" width="1440" height="900"><path d="M669,467L548,504L626,612Z" fill="rgb(252,157,173)" stroke="rgb(252,157,173)" stroke-width="1.51"/><path d="M626,612L778,632L669,467Z" fill="rgb(251,148,166)" stroke="rgb(251,148,166)" stroke-width="1.51"/><path d="M669,467L547,318L548,504Z" fill="rgb(254,170,183)" stroke="rgb(254,170,183)" stroke-width="1.51"/><path d="M831,466L704,343L669,467Z" fill="rgb(253,161,176)" stroke="rgb(253,161,176)" stroke-width="1.51"/><path d="M548,504L425,611L626,612Z" fill="rgb(252,157,174)" stroke="rgb(252,157,174)" stroke-width="1.51"/><path d="M547,318L422,483L548,504Z" fill="rgb(254,175,187)" stroke="rgb(254,175,187)" stroke-width="1.51"/><path d="M422,483L425,611L548,504Z" fill="rgb(253,167,181)" stroke="rgb(253,167,181)" stroke-width="1.51"/><path d="M732,837L836,716L778,632Z" fill="rgb(246,123,148)" stroke="rgb(246,123,148)" stroke-width="1.51"/><path d="M778,632L831,466L669,467Z" fill="rgb(251,148,166)" stroke="rgb(251,148,166)" stroke-width="1.51"/><path d="M704,343L547,318L669,467Z" fill="rgb(254,173,185)" stroke="rgb(254,173,185)" stroke-width="1.51"/><path d="M704,343L602,272L547,318Z" fill="rgb(255,181,192)" stroke="rgb(255,181,192)" stroke-width="1.51"/><path d="M778,632L958,727L831,466Z" fill="rgb(248,132,154)" stroke="rgb(248,132,154)" stroke-width="1.51"/><path d="M732,837L778,632L626,612Z" fill="rgb(248,132,154)" stroke="rgb(248,132,154)" stroke-width="1.51"/><path d="M425,172L363,351L547,318Z" fill="rgb(255,196,204)" stroke="rgb(255,196,204)" stroke-width="1.51"/><path d="M547,318L363,351L422,483Z" fill="rgb(255,185,195)" stroke="rgb(255,185,195)" stroke-width="1.51"/><path d="M422,483L248,480L425,611Z" fill="rgb(254,175,187)" stroke="rgb(254,175,187)" stroke-width="1.51"/><path d="M619,862L732,837L626,612Z" fill="rgb(246,127,150)" stroke="rgb(246,127,150)" stroke-width="1.51"/><path d="M392,796L619,862L626,612Z" fill="rgb(249,137,157)" stroke="rgb(249,137,157)" stroke-width="1.51"/><path d="M831,466L929,391L704,343Z" fill="rgb(252,158,173)" stroke="rgb(252,158,173)" stroke-width="1.51"/><path d="M704,343L755,195L602,272Z" fill="rgb(254,181,192)" stroke="rgb(254,181,192)" stroke-width="1.51"/><path d="M1027,472L929,391L831,466Z" fill="rgb(250,145,164)" stroke="rgb(250,145,164)" stroke-width="1.51"/><path d="M425,611L392,796L626,612Z" fill="rgb(251,150,168)" stroke="rgb(251,150,168)" stroke-width="1.51"/><path d="M233,676L392,796L425,611Z" fill="rgb(251,158,173)" stroke="rgb(251,158,173)" stroke-width="1.51"/><path d="M868,183L755,195L704,343Z" fill="rgb(254,178,189)" stroke="rgb(254,178,189)" stroke-width="1.51"/><path d="M602,272L425,172L547,318Z" fill="rgb(255,193,202)" stroke="rgb(255,193,202)" stroke-width="1.51"/><path d="M264,406L248,480L422,483Z" fill="rgb(254,186,196)" stroke="rgb(254,186,196)" stroke-width="1.51"/><path d="M363,351L264,406L422,483Z" fill="rgb(255,188,198)" stroke="rgb(255,188,198)" stroke-width="1.51"/><path d="M836,716L958,727L778,632Z" fill="rgb(246,122,147)" stroke="rgb(246,122,147)" stroke-width="1.51"/><path d="M859,865L958,727L836,716Z" fill="rgb(244,110,139)" stroke="rgb(244,110,139)" stroke-width="1.51"/><path d="M831,962L859,865L732,837Z" fill="rgb(242,101,133)" stroke="rgb(242,101,133)" stroke-width="1.51"/><path d="M732,837L859,865L836,716Z" fill="rgb(243,111,140)" stroke="rgb(243,111,140)" stroke-width="1.51"/><path d="M929,391L868,183L704,343Z" fill="rgb(253,167,181)" stroke="rgb(253,167,181)" stroke-width="1.51"/><path d="M958,727L1027,472L831,466Z" fill="rgb(248,132,154)" stroke="rgb(248,132,154)" stroke-width="1.51"/><path d="M363,351L255,262L264,406Z" fill="rgb(255,200,207)" stroke="rgb(255,200,207)" stroke-width="1.51"/><path d="M632,79L425,172L602,272Z" fill="rgb(255,200,208)" stroke="rgb(255,200,208)" stroke-width="1.51"/><path d="M248,480L233,676L425,611Z" fill="rgb(253,172,185)" stroke="rgb(253,172,185)" stroke-width="1.51"/><path d="M979,221L868,183L929,391Z" fill="rgb(252,165,180)" stroke="rgb(252,165,180)" stroke-width="1.51"/><path d="M755,195L632,79L602,272Z" fill="rgb(255,192,201)" stroke="rgb(255,192,201)" stroke-width="1.51"/><path d="M704,1012L831,962L732,837Z" fill="rgb(242,104,135)" stroke="rgb(242,104,135)" stroke-width="1.51"/><path d="M392,796L566,958L619,862Z" fill="rgb(246,125,149)" stroke="rgb(246,125,149)" stroke-width="1.51"/><path d="M424,1009L566,958L392,796Z" fill="rgb(246,126,150)" stroke="rgb(246,126,150)" stroke-width="1.51"/><path d="M233,676L320,847L392,796Z" fill="rgb(250,151,169)" stroke="rgb(250,151,169)" stroke-width="1.51"/><path d="M101,422L248,480L264,406Z" fill="rgb(255,195,204)" stroke="rgb(255,195,204)" stroke-width="1.51"/><path d="M101,422L175,535L248,480Z" fill="rgb(255,192,201)" stroke="rgb(255,192,201)" stroke-width="1.51"/><path d="M248,480L175,535L233,676Z" fill="rgb(254,180,192)" stroke="rgb(254,180,192)" stroke-width="1.51"/><path d="M736,82L632,79L755,195Z" fill="rgb(255,195,204)" stroke="rgb(255,195,204)" stroke-width="1.51"/><path d="M425,172L255,262L363,351Z" fill="rgb(255,205,211)" stroke="rgb(255,205,211)" stroke-width="1.51"/><path d="M1027,472L1047,357L929,391Z" fill="rgb(250,144,163)" stroke="rgb(250,144,163)" stroke-width="1.51"/><path d="M866,85L736,82L755,195Z" fill="rgb(255,190,199)" stroke="rgb(255,190,199)" stroke-width="1.51"/><path d="M175,535L159,618L233,676Z" fill="rgb(254,178,189)" stroke="rgb(254,178,189)" stroke-width="1.51"/><path d="M181,988L309,978L320,847Z" fill="rgb(248,140,160)" stroke="rgb(248,140,160)" stroke-width="1.51"/><path d="M868,183L866,85L755,195Z" fill="rgb(254,184,194)" stroke="rgb(254,184,194)" stroke-width="1.51"/><path d="M1047,357L979,221L929,391Z" fill="rgb(252,154,171)" stroke="rgb(252,154,171)" stroke-width="1.51"/><path d="M704,1012L732,837L619,862Z" fill="rgb(243,110,138)" stroke="rgb(243,110,138)" stroke-width="1.51"/><path d="M859,865L1059,780L958,727Z" fill="rgb(242,101,133)" stroke="rgb(242,101,133)" stroke-width="1.51"/><path d="M566,958L704,1012L619,862Z" fill="rgb(244,114,141)" stroke="rgb(244,114,141)" stroke-width="1.51"/><path d="M958,727L1178,571L1027,472Z" fill="rgb(246,119,145)" stroke="rgb(246,119,145)" stroke-width="1.51"/><path d="M1027,472L1165,342L1047,357Z" fill="rgb(249,141,161)" stroke="rgb(249,141,161)" stroke-width="1.51"/><path d="M961,1014L1059,780L859,865Z" fill="rgb(239,89,126)" stroke="rgb(239,89,126)" stroke-width="1.51"/><path d="M979,221L866,85L868,183Z" fill="rgb(254,177,189)" stroke="rgb(254,177,189)" stroke-width="1.51"/><path d="M537,-81L359,41L632,79Z" fill="rgb(255,220,225)" stroke="rgb(255,220,225)" stroke-width="1.51"/><path d="M566,958L525,1106L704,1012Z" fill="rgb(245,116,143)" stroke="rgb(245,116,143)" stroke-width="1.51"/><path d="M320,847L424,1009L392,796Z" fill="rgb(248,134,155)" stroke="rgb(248,134,155)" stroke-width="1.51"/><path d="M309,978L424,1009L320,847Z" fill="rgb(248,135,156)" stroke="rgb(248,135,156)" stroke-width="1.51"/><path d="M425,172L297,119L255,262Z" fill="rgb(255,214,219)" stroke="rgb(255,214,219)" stroke-width="1.51"/><path d="M359,41L297,119L425,172Z" fill="rgb(255,220,224)" stroke="rgb(255,220,224)" stroke-width="1.51"/><path d="M121,215L101,422L255,262Z" fill="rgb(255,213,219)" stroke="rgb(255,213,219)" stroke-width="1.51"/><path d="M255,262L101,422L264,406Z" fill="rgb(255,203,210)" stroke="rgb(255,203,210)" stroke-width="1.51"/><path d="M175,535L8,617L159,618Z" fill="rgb(255,185,195)" stroke="rgb(255,185,195)" stroke-width="1.51"/><path d="M90,774L320,847L233,676Z" fill="rgb(252,159,174)" stroke="rgb(252,159,174)" stroke-width="1.51"/><path d="M1059,780L1138,730L958,727Z" fill="rgb(242,100,132)" stroke="rgb(242,100,132)" stroke-width="1.51"/><path d="M1184,815L1138,730L1059,780Z" fill="rgb(239,90,126)" stroke="rgb(239,90,126)" stroke-width="1.51"/><path d="M1138,730L1178,571L958,727Z" fill="rgb(242,106,135)" stroke="rgb(242,106,135)" stroke-width="1.51"/><path d="M1047,357L1165,342L979,221Z" fill="rgb(251,151,168)" stroke="rgb(251,151,168)" stroke-width="1.51"/><path d="M537,-81L632,79L658,-120Z" fill="rgb(255,215,220)" stroke="rgb(255,215,220)" stroke-width="1.51"/><path d="M632,79L359,41L425,172Z" fill="rgb(255,213,219)" stroke="rgb(255,213,219)" stroke-width="1.51"/><path d="M1178,571L1165,342L1027,472Z" fill="rgb(247,129,152)" stroke="rgb(247,129,152)" stroke-width="1.51"/><path d="M1030,50L841,-27L866,85Z" fill="rgb(255,191,200)" stroke="rgb(255,191,200)" stroke-width="1.51"/><path d="M424,1009L525,1106L566,958Z" fill="rgb(246,123,148)" stroke="rgb(246,123,148)" stroke-width="1.51"/><path d="M839,1094L961,1014L831,962Z" fill="rgb(240,94,129)" stroke="rgb(240,94,129)" stroke-width="1.51"/><path d="M455,1135L525,1106L424,1009Z" fill="rgb(246,126,150)" stroke="rgb(246,126,150)" stroke-width="1.51"/><path d="M159,618L90,774L233,676Z" fill="rgb(253,171,184)" stroke="rgb(253,171,184)" stroke-width="1.51"/><path d="M8,617L90,774L159,618Z" fill="rgb(254,178,190)" stroke="rgb(254,178,190)" stroke-width="1.51"/><path d="M831,962L961,1014L859,865Z" fill="rgb(240,94,128)" stroke="rgb(240,94,128)" stroke-width="1.51"/><path d="M839,1094L831,962L704,1012Z" fill="rgb(242,101,133)" stroke="rgb(242,101,133)" stroke-width="1.51"/><path d="M77,87L121,215L297,119Z" fill="rgb(255,229,232)" stroke="rgb(255,229,232)" stroke-width="1.51"/><path d="M297,119L121,215L255,262Z" fill="rgb(255,219,224)" stroke="rgb(255,219,224)" stroke-width="1.51"/><path d="M866,85L841,-27L736,82Z" fill="rgb(255,196,204)" stroke="rgb(255,196,204)" stroke-width="1.51"/><path d="M1030,50L866,85L979,221Z" fill="rgb(254,179,190)" stroke="rgb(254,179,190)" stroke-width="1.51"/><path d="M780,1184L839,1094L704,1012Z" fill="rgb(242,102,134)" stroke="rgb(242,102,134)" stroke-width="1.51"/><path d="M658,-120L632,79L736,82Z" fill="rgb(255,209,215)" stroke="rgb(255,209,215)" stroke-width="1.51"/><path d="M-39,546L175,535L101,422Z" fill="rgb(255,197,205)" stroke="rgb(255,197,205)" stroke-width="1.51"/><path d="M-39,546L8,617L175,535Z" fill="rgb(255,192,201)" stroke="rgb(255,192,201)" stroke-width="1.51"/><path d="M525,1106L780,1184L704,1012Z" fill="rgb(244,111,139)" stroke="rgb(244,111,139)" stroke-width="1.51"/><path d="M309,978L455,1135L424,1009Z" fill="rgb(247,131,153)" stroke="rgb(247,131,153)" stroke-width="1.51"/><path d="M211,1164L455,1135L309,978Z" fill="rgb(248,136,157)" stroke="rgb(248,136,157)" stroke-width="1.51"/><path d="M1116,926L1184,815L1059,780Z" fill="rgb(238,81,121)" stroke="rgb(238,81,121)" stroke-width="1.51"/><path d="M1138,730L1304,669L1178,571Z" fill="rgb(241,99,132)" stroke="rgb(241,99,132)" stroke-width="1.51"/><path d="M1214,248L1030,50L979,221Z" fill="rgb(252,165,179)" stroke="rgb(252,165,179)" stroke-width="1.51"/><path d="M961,1014L1116,926L1059,780Z" fill="rgb(237,79,120)" stroke="rgb(237,79,120)" stroke-width="1.51"/><path d="M1292,880L1116,926L1232,1113Z" fill="rgb(234,63,112)" stroke="rgb(234,63,112)" stroke-width="1.51"/><path d="M90,774L181,988L320,847Z" fill="rgb(250,149,166)" stroke="rgb(250,149,166)" stroke-width="1.51"/><path d="M-6,989L181,988L90,774Z" fill="rgb(251,153,170)" stroke="rgb(251,153,170)" stroke-width="1.51"/><path d="M537,-81L377,-57L359,41Z" fill="rgb(255,227,231)" stroke="rgb(255,227,231)" stroke-width="1.51"/><path d="M359,41L292,-55L297,119Z" fill="rgb(255,231,234)" stroke="rgb(255,231,234)" stroke-width="1.51"/><path d="M841,-27L658,-120L736,82Z" fill="rgb(255,206,213)" stroke="rgb(255,206,213)" stroke-width="1.51"/><path d="M537,-81L480,-200L377,-57Z" fill="rgb(255,224,228)" stroke="rgb(255,224,228)" stroke-width="1.51"/><path d="M710,-235L658,-120L816,-234Z" fill="rgb(255,207,214)" stroke="rgb(255,207,214)" stroke-width="1.51"/><path d="M1165,342L1214,248L979,221Z" fill="rgb(251,151,169)" stroke="rgb(251,151,169)" stroke-width="1.51"/><path d="M1259,321L1214,248L1165,342Z" fill="rgb(249,141,161)" stroke="rgb(249,141,161)" stroke-width="1.51"/><path d="M1259,321L1165,342L1334,474Z" fill="rgb(247,129,152)" stroke="rgb(247,129,152)" stroke-width="1.51"/><path d="M8,617L-59,769L90,774Z" fill="rgb(254,177,189)" stroke="rgb(254,177,189)" stroke-width="1.51"/><path d="M-72,378L-39,546L101,422Z" fill="rgb(255,207,214)" stroke="rgb(255,207,214)" stroke-width="1.51"/><path d="M1334,474L1165,342L1178,571Z" fill="rgb(246,122,147)" stroke="rgb(246,122,147)" stroke-width="1.51"/><path d="M839,1094L1076,1158L961,1014Z" fill="rgb(239,87,124)" stroke="rgb(239,87,124)" stroke-width="1.51"/><path d="M455,1135L780,1184L525,1106Z" fill="rgb(245,117,144)" stroke="rgb(245,117,144)" stroke-width="1.51"/><path d="M237,-165L292,-55L377,-57Z" fill="rgb(255,235,237)" stroke="rgb(255,235,237)" stroke-width="1.51"/><path d="M377,-57L292,-55L359,41Z" fill="rgb(255,233,235)" stroke="rgb(255,233,235)" stroke-width="1.51"/><path d="M1184,815L1304,669L1138,730Z" fill="rgb(239,88,125)" stroke="rgb(239,88,125)" stroke-width="1.51"/><path d="M1292,880L1304,669L1184,815Z" fill="rgb(236,76,118)" stroke="rgb(236,76,118)" stroke-width="1.51"/><path d="M77,87L-14,244L121,215Z" fill="rgb(255,232,235)" stroke="rgb(255,232,235)" stroke-width="1.51"/><path d="M121,215L-14,244L101,422Z" fill="rgb(255,220,224)" stroke="rgb(255,220,224)" stroke-width="1.51"/><path d="M292,-55L77,87L297,119Z" fill="rgb(255,235,238)" stroke="rgb(255,235,238)" stroke-width="1.51"/><path d="M1030,50L1042,-34L841,-27Z" fill="rgb(255,190,200)" stroke="rgb(255,190,200)" stroke-width="1.51"/><path d="M1197,25L1042,-34L1030,50Z" fill="rgb(255,181,192)" stroke="rgb(255,181,192)" stroke-width="1.51"/><path d="M1197,25L1030,50L1214,248Z" fill="rgb(253,167,181)" stroke="rgb(253,167,181)" stroke-width="1.51"/><path d="M-14,244L-72,378L101,422Z" fill="rgb(255,218,223)" stroke="rgb(255,218,223)" stroke-width="1.51"/><path d="M1304,669L1334,474L1178,571Z" fill="rgb(243,104,135)" stroke="rgb(243,104,135)" stroke-width="1.51"/><path d="M-224,694L-59,769L8,617Z" fill="rgb(255,181,193)" stroke="rgb(255,181,193)" stroke-width="1.51"/><path d="M-132,939L-59,769L-209,777Z" fill="rgb(253,167,181)" stroke="rgb(253,167,181)" stroke-width="1.51"/><path d="M560,-248L480,-200L537,-81Z" fill="rgb(255,220,225)" stroke="rgb(255,220,225)" stroke-width="1.51"/><path d="M292,-55L133,-103L77,87Z" fill="rgb(255,244,245)" stroke="rgb(255,244,245)" stroke-width="1.51"/><path d="M560,-248L537,-81L658,-120Z" fill="rgb(255,216,222)" stroke="rgb(255,216,222)" stroke-width="1.51"/><path d="M1412,424L1319,251L1259,321Z" fill="rgb(247,129,152)" stroke="rgb(247,129,152)" stroke-width="1.51"/><path d="M1259,321L1319,251L1214,248Z" fill="rgb(249,141,160)" stroke="rgb(249,141,160)" stroke-width="1.51"/><path d="M181,988L211,1164L309,978Z" fill="rgb(249,143,162)" stroke="rgb(249,143,162)" stroke-width="1.51"/><path d="M455,1135L211,1164L780,1184Z" fill="rgb(246,125,149)" stroke="rgb(246,125,149)" stroke-width="1.51"/><path d="M90,1118L211,1164L181,988Z" fill="rgb(250,148,166)" stroke="rgb(250,148,166)" stroke-width="1.51"/><path d="M1116,926L1292,880L1184,815Z" fill="rgb(235,69,115)" stroke="rgb(235,69,115)" stroke-width="1.51"/><path d="M1425,500L1412,424L1334,474Z" fill="rgb(243,108,138)" stroke="rgb(243,108,138)" stroke-width="1.51"/><path d="M1076,1158L1116,926L961,1014Z" fill="rgb(237,79,120)" stroke="rgb(237,79,120)" stroke-width="1.51"/><path d="M1268,33L1197,25L1214,248Z" fill="rgb(252,162,177)" stroke="rgb(252,162,177)" stroke-width="1.51"/><path d="M816,-234L841,-27L1031,-258Z" fill="rgb(255,196,204)" stroke="rgb(255,196,204)" stroke-width="1.51"/><path d="M816,-234L658,-120L841,-27Z" fill="rgb(255,204,211)" stroke="rgb(255,204,211)" stroke-width="1.51"/><path d="M780,1184L1076,1158L839,1094Z" fill="rgb(240,92,127)" stroke="rgb(240,92,127)" stroke-width="1.51"/><path d="M-59,769L-6,989L90,774Z" fill="rgb(253,165,179)" stroke="rgb(253,165,179)" stroke-width="1.51"/><path d="M710,-235L560,-248L658,-120Z" fill="rgb(255,212,218)" stroke="rgb(255,212,218)" stroke-width="1.51"/><path d="M710,-235L1031,-258L560,-248Z" fill="rgb(255,204,211)" stroke="rgb(255,204,211)" stroke-width="1.51"/><path d="M1031,-258L841,-27L1042,-34Z" fill="rgb(255,190,200)" stroke="rgb(255,190,200)" stroke-width="1.51"/><path d="M26,1081L90,1118L181,988Z" fill="rgb(251,152,169)" stroke="rgb(251,152,169)" stroke-width="1.51"/><path d="M1425,500L1334,474L1304,669Z" fill="rgb(242,101,133)" stroke="rgb(242,101,133)" stroke-width="1.51"/><path d="M1334,474L1412,424L1259,321Z" fill="rgb(245,120,146)" stroke="rgb(245,120,146)" stroke-width="1.51"/><path d="M60,-285L237,-165L480,-200Z" fill="rgb(255,238,240)" stroke="rgb(255,238,240)" stroke-width="1.51"/><path d="M480,-200L237,-165L377,-57Z" fill="rgb(255,231,234)" stroke="rgb(255,231,234)" stroke-width="1.51"/><path d="M237,-165L133,-103L292,-55Z" fill="rgb(255,240,242)" stroke="rgb(255,240,242)" stroke-width="1.51"/><path d="M77,87L-75,77L-14,244Z" fill="rgb(255,240,242)" stroke="rgb(255,240,242)" stroke-width="1.51"/><path d="M-185,229L-232,425L-72,378Z" fill="rgb(255,219,224)" stroke="rgb(255,219,224)" stroke-width="1.51"/><path d="M1498,654L1425,500L1304,669Z" fill="rgb(239,89,126)" stroke="rgb(239,89,126)" stroke-width="1.51"/><path d="M-6,989L26,1081L181,988Z" fill="rgb(251,154,171)" stroke="rgb(251,154,171)" stroke-width="1.51"/><path d="M1221,-136L1031,-258L1042,-34Z" fill="rgb(255,182,193)" stroke="rgb(255,182,193)" stroke-width="1.51"/><path d="M1319,251L1268,33L1214,248Z" fill="rgb(250,151,169)" stroke="rgb(250,151,169)" stroke-width="1.51"/><path d="M1477,80L1268,33L1319,251Z" fill="rgb(251,151,169)" stroke="rgb(251,151,169)" stroke-width="1.51"/><path d="M-75,-125L-75,77L77,87Z" fill="rgb(255,253,254)" stroke="rgb(255,253,254)" stroke-width="1.51"/><path d="M1492,863L1498,654L1304,669Z" fill="rgb(235,69,115)" stroke="rgb(235,69,115)" stroke-width="1.51"/><path d="M1076,1158L1232,1113L1116,926Z" fill="rgb(235,70,115)" stroke="rgb(235,70,115)" stroke-width="1.51"/><path d="M-6,989L-165,1182L26,1081Z" fill="rgb(252,159,174)" stroke="rgb(252,159,174)" stroke-width="1.51"/><path d="M-59,769L-132,939L-6,989Z" fill="rgb(252,159,174)" stroke="rgb(252,159,174)" stroke-width="1.51"/><path d="M-224,694L8,617L-39,546Z" fill="rgb(255,189,199)" stroke="rgb(255,189,199)" stroke-width="1.51"/><path d="M-232,425L-39,546L-72,378Z" fill="rgb(255,207,214)" stroke="rgb(255,207,214)" stroke-width="1.51"/><path d="M-185,229L-72,378L-14,244Z" fill="rgb(255,225,229)" stroke="rgb(255,225,229)" stroke-width="1.51"/><path d="M-240,571L-224,694L-39,546Z" fill="rgb(255,191,200)" stroke="rgb(255,191,200)" stroke-width="1.51"/><path d="M-75,77L-185,229L-14,244Z" fill="rgb(255,236,238)" stroke="rgb(255,236,238)" stroke-width="1.51"/><path d="M-232,425L-240,571L-39,546Z" fill="rgb(255,201,208)" stroke="rgb(255,201,208)" stroke-width="1.51"/><path d="M-224,694L-209,777L-59,769Z" fill="rgb(254,176,188)" stroke="rgb(254,176,188)" stroke-width="1.51"/><path d="M1232,1113L1381,956L1292,880Z" fill="rgb(232,53,107)" stroke="rgb(232,53,107)" stroke-width="1.51"/><path d="M1492,863L1304,669L1292,880Z" fill="rgb(234,63,112)" stroke="rgb(234,63,112)" stroke-width="1.51"/><path d="M1425,500L1558,355L1412,424Z" fill="rgb(243,110,138)" stroke="rgb(243,110,138)" stroke-width="1.51"/><path d="M1259,-126L1197,25L1268,33Z" fill="rgb(254,172,185)" stroke="rgb(254,172,185)" stroke-width="1.51"/><path d="M1221,-136L1042,-34L1197,25Z" fill="rgb(254,178,190)" stroke="rgb(254,178,190)" stroke-width="1.51"/><path d="M816,-234L1031,-258L710,-235Z" fill="rgb(255,198,206)" stroke="rgb(255,198,206)" stroke-width="1.51"/><path d="M1259,-126L1221,-136L1197,25Z" fill="rgb(254,174,186)" stroke="rgb(254,174,186)" stroke-width="1.51"/><path d="M1259,-126L1268,33L1427,-93Z" fill="rgb(253,167,181)" stroke="rgb(253,167,181)" stroke-width="1.51"/><path d="M780,1184L1263,1183L1076,1158Z" fill="rgb(237,80,121)" stroke="rgb(237,80,121)" stroke-width="1.51"/><path d="M1076,1158L1263,1183L1232,1113Z" fill="rgb(234,66,113)" stroke="rgb(234,66,113)" stroke-width="1.51"/><path d="M1232,1113L1451,1080L1381,956Z" fill="rgb(231,46,105)" stroke="rgb(231,46,105)" stroke-width="1.51"/><path d="M1221,-136L1177,-259L1031,-258Z" fill="rgb(255,179,190)" stroke="rgb(255,179,190)" stroke-width="1.51"/><path d="M1558,355L1319,251L1412,424Z" fill="rgb(245,120,146)" stroke="rgb(245,120,146)" stroke-width="1.51"/><path d="M1492,987L1492,863L1381,956Z" fill="rgb(229,33,101)" stroke="rgb(229,33,101)" stroke-width="1.51"/><path d="M1381,956L1492,863L1292,880Z" fill="rgb(230,42,103)" stroke="rgb(230,42,103)" stroke-width="1.51"/><path d="M-75,77L-209,93L-185,229Z" fill="rgb(255,241,243)" stroke="rgb(255,241,243)" stroke-width="1.51"/><path d="M-185,229L-209,93L-232,425Z" fill="rgb(255,229,232)" stroke="rgb(255,229,232)" stroke-width="1.51"/><path d="M-143,-59L-209,93L-75,77Z" fill="rgb(255,251,251)" stroke="rgb(255,251,251)" stroke-width="1.51"/><path d="M-75,-125L77,87L133,-103Z" fill="rgb(255,252,252)" stroke="rgb(255,252,252)" stroke-width="1.51"/><path d="M1673,547L1425,500L1498,654Z" fill="rgb(240,91,127)" stroke="rgb(240,91,127)" stroke-width="1.51"/><path d="M1673,547L1558,355L1425,500Z" fill="rgb(243,105,135)" stroke="rgb(243,105,135)" stroke-width="1.51"/><path d="M-13,-200L-75,-125L133,-103Z" fill="rgb(255,254,254)" stroke="rgb(255,254,254)" stroke-width="1.51"/><path d="M-13,-200L133,-103L60,-285Z" fill="rgb(255,251,251)" stroke="rgb(255,251,251)" stroke-width="1.51"/><path d="M1558,355L1520,182L1319,251Z" fill="rgb(247,129,152)" stroke="rgb(247,129,152)" stroke-width="1.51"/><path d="M1356,-225L1177,-259L1221,-136Z" fill="rgb(254,172,184)" stroke="rgb(254,172,184)" stroke-width="1.51"/><path d="M1356,-225L1221,-136L1259,-126Z" fill="rgb(254,170,183)" stroke="rgb(254,170,183)" stroke-width="1.51"/><path d="M1520,182L1477,80L1319,251Z" fill="rgb(248,140,160)" stroke="rgb(248,140,160)" stroke-width="1.51"/><path d="M-75,-125L-143,-59L-75,77Z" fill="rgb(255,255,255)" stroke="rgb(255,255,255)" stroke-width="1.51"/><path d="M-75,-125L-170,-275L-143,-59Z" fill="rgb(255,255,255)" stroke="rgb(255,255,255)" stroke-width="1.51"/><path d="M60,-285L133,-103L237,-165Z" fill="rgb(255,245,246)" stroke="rgb(255,245,246)" stroke-width="1.51"/><path d="M1451,1080L1492,987L1381,956Z" fill="rgb(229,33,101)" stroke="rgb(229,33,101)" stroke-width="1.51"/><path d="M1639,797L1649,726L1498,654Z" fill="rgb(235,69,114)" stroke="rgb(235,69,114)" stroke-width="1.51"/><path d="M-13,-200L-170,-275L-75,-125Z" fill="rgb(255,255,255)" stroke="rgb(255,255,255)" stroke-width="1.51"/><path d="M560,-248L60,-285L480,-200Z" fill="rgb(255,231,234)" stroke="rgb(255,231,234)" stroke-width="1.51"/><path d="M1031,-258L60,-285L560,-248Z" fill="rgb(255,219,224)" stroke="rgb(255,219,224)" stroke-width="1.51"/><path d="M1421,-272L60,-285L1031,-258Z" fill="rgb(255,199,207)" stroke="rgb(255,199,207)" stroke-width="1.51"/><path d="M1263,1183L1451,1080L1232,1113Z" fill="rgb(232,51,107)" stroke="rgb(232,51,107)" stroke-width="1.51"/><path d="M1520,182L1582,91L1477,80Z" fill="rgb(250,146,164)" stroke="rgb(250,146,164)" stroke-width="1.51"/><path d="M1558,355L1570,186L1520,182Z" fill="rgb(247,132,154)" stroke="rgb(247,132,154)" stroke-width="1.51"/><path d="M1612,-28L1427,-93L1477,80Z" fill="rgb(252,159,174)" stroke="rgb(252,159,174)" stroke-width="1.51"/><path d="M1477,80L1427,-93L1268,33Z" fill="rgb(252,162,177)" stroke="rgb(252,162,177)" stroke-width="1.51"/><path d="M-132,939L-165,1182L-6,989Z" fill="rgb(252,159,174)" stroke="rgb(252,159,174)" stroke-width="1.51"/><path d="M26,1081L-165,1182L90,1118Z" fill="rgb(252,159,174)" stroke="rgb(252,159,174)" stroke-width="1.51"/><path d="M90,1118L-165,1182L211,1164Z" fill="rgb(252,156,172)" stroke="rgb(252,156,172)" stroke-width="1.51"/><path d="M211,1164L-165,1182L780,1184Z" fill="rgb(248,140,160)" stroke="rgb(248,140,160)" stroke-width="1.51"/><path d="M-209,777L-165,1182L-132,939Z" fill="rgb(252,159,174)" stroke="rgb(252,159,174)" stroke-width="1.51"/><path d="M-224,694L-165,1182L-209,777Z" fill="rgb(252,160,176)" stroke="rgb(252,160,176)" stroke-width="1.51"/><path d="M-240,571L-165,1182L-224,694Z" fill="rgb(254,168,182)" stroke="rgb(254,168,182)" stroke-width="1.51"/><path d="M1639,797L1492,863L1575,1016Z" fill="rgb(230,35,101)" stroke="rgb(230,35,101)" stroke-width="1.51"/><path d="M1639,797L1498,654L1492,863Z" fill="rgb(233,61,111)" stroke="rgb(233,61,111)" stroke-width="1.51"/><path d="M1558,355L1673,547L1570,186Z" fill="rgb(245,117,144)" stroke="rgb(245,117,144)" stroke-width="1.51"/><path d="M1575,1016L1492,863L1492,987Z" fill="rgb(229,33,101)" stroke="rgb(229,33,101)" stroke-width="1.51"/><path d="M1649,726L1673,547L1498,654Z" fill="rgb(237,81,121)" stroke="rgb(237,81,121)" stroke-width="1.51"/><path d="M1427,-93L1356,-225L1259,-126Z" fill="rgb(253,165,179)" stroke="rgb(253,165,179)" stroke-width="1.51"/><path d="M1570,186L1582,91L1520,182Z" fill="rgb(249,142,161)" stroke="rgb(249,142,161)" stroke-width="1.51"/><path d="M1427,-93L1421,-272L1356,-225Z" fill="rgb(253,161,177)" stroke="rgb(253,161,177)" stroke-width="1.51"/><path d="M1673,547L1582,91L1570,186Z" fill="rgb(247,128,151)" stroke="rgb(247,128,151)" stroke-width="1.51"/><path d="M1451,1080L1575,1016L1492,987Z" fill="rgb(229,33,101)" stroke="rgb(229,33,101)" stroke-width="1.51"/><path d="M1601,1090L1575,1016L1451,1080Z" fill="rgb(229,33,101)" stroke="rgb(229,33,101)" stroke-width="1.51"/><path d="M1263,1183L1601,1090L1451,1080Z" fill="rgb(229,34,101)" stroke="rgb(229,34,101)" stroke-width="1.51"/><path d="M1575,1016L1601,1090L1639,797Z" fill="rgb(229,33,101)" stroke="rgb(229,33,101)" stroke-width="1.51"/><path d="M1639,797L1601,1090L1649,726Z" fill="rgb(230,41,103)" stroke="rgb(230,41,103)" stroke-width="1.51"/><path d="M1649,726L1601,1090L1673,547Z" fill="rgb(233,58,110)" stroke="rgb(233,58,110)" stroke-width="1.51"/><path d="M60,-285L-170,-275L-13,-200Z" fill="rgb(255,255,255)" stroke="rgb(255,255,255)" stroke-width="1.51"/><path d="M-143,-59L-170,-275L-209,93Z" fill="rgb(255,255,255)" stroke="rgb(255,255,255)" stroke-width="1.51"/><path d="M1648,-211L1421,-272L1427,-93Z" fill="rgb(252,159,174)" stroke="rgb(252,159,174)" stroke-width="1.51"/><path d="M1356,-225L1421,-272L1177,-259Z" fill="rgb(253,167,181)" stroke="rgb(253,167,181)" stroke-width="1.51"/><path d="M1177,-259L1421,-272L1031,-258Z" fill="rgb(254,174,187)" stroke="rgb(254,174,187)" stroke-width="1.51"/><path d="M1673,547L1612,-28L1582,91Z" fill="rgb(248,136,157)" stroke="rgb(248,136,157)" stroke-width="1.51"/><path d="M1582,91L1612,-28L1477,80Z" fill="rgb(251,154,170)" stroke="rgb(251,154,170)" stroke-width="1.51"/><path d="M1612,-28L1648,-211L1427,-93Z" fill="rgb(252,159,174)" stroke="rgb(252,159,174)" stroke-width="1.51"/><path d="M1673,547L1648,-211L1612,-28Z" fill="rgb(250,147,166)" stroke="rgb(250,147,166)" stroke-width="1.51"/></svg>